<?xml version="1.0" encoding="utf-8"?>
<!-- Generator: Adobe Illustrator 26.3.1, SVG Export Plug-In . SVG Version: 6.00 Build 0)  -->
<svg version="1.1" id="Layer_1" xmlns="http://www.w3.org/2000/svg" xmlns:xlink="http://www.w3.org/1999/xlink" x="0px" y="0px"
	 viewBox="0 0 150 24" style="enable-background:new 0 0 150 24;" xml:space="preserve">
<style type="text/css">
	.st0{fill:#49A2E7;}
</style>
<g id="lg_douzone_white" transform="translate(-88.763 -95.17)">
	<path id="패스_107" class="st0" d="M124.04,97.03c-5.6,0-10.14,4.54-10.14,10.14c0,5.6,4.54,10.14,10.14,10.14
		c5.6,0,10.14-4.54,10.14-10.14c0,0,0,0,0,0C134.18,101.57,129.64,97.03,124.04,97.03z M124.04,112.24c-2.8,0-5.07-2.27-5.07-5.07
		s2.27-5.07,5.07-5.07c2.8,0,5.07,2.27,5.07,5.07S126.84,112.24,124.04,112.24L124.04,112.24z"/>
	<path id="패스_108" class="st0" d="M185.73,97.03c-5.6,0-10.14,4.54-10.14,10.14c0,5.6,4.54,10.14,10.14,10.14
		c5.6,0,10.14-4.54,10.14-10.14c0,0,0,0,0,0C195.88,101.57,191.34,97.03,185.73,97.03C185.73,97.03,185.73,97.03,185.73,97.03z
		 M185.73,112.24c-2.8,0-5.07-2.27-5.07-5.07c0-2.8,2.27-5.07,5.07-5.07c2.8,0,5.07,2.27,5.07,5.07
		C190.81,109.97,188.54,112.24,185.73,112.24C185.73,112.24,185.73,112.24,185.73,112.24z"/>
	<path id="패스_109" class="st0" d="M100.95,97.71h-8.27c-0.06,0-0.13,0.02-0.17,0.07c-0.09,0.1-0.09,0.24,0,0.34l0.93,1.19
		c0.16,0.18,0.24,0.42,0.22,0.66v16.42c0,0.13,0.11,0.24,0.24,0.24c0,0,0,0,0,0h6.95c6.81,0,10.78-4.05,10.78-9.51v-0.05
		C111.62,101.6,107.71,97.71,100.95,97.71z M106.25,107.2c0,3.19-2.08,5-5.22,5H98.9v-10.05h2.14c3.14,0,5.22,1.83,5.22,5V107.2z"/>
	<path id="패스_110" class="st0" d="M173.89,112.44c0-0.13-0.11-0.24-0.24-0.24h-9.24l9.27-10.43c0.16-0.18,0.24-0.42,0.22-0.66
		v-3.16c0-0.13-0.11-0.24-0.24-0.24h-15.93c-0.13,0-0.24,0.11-0.24,0.24v3.95c0,0.13,0.11,0.24,0.24,0.24h8.92l-9.27,10.43
		c-0.16,0.18-0.24,0.42-0.22,0.66v3.15c0,0.13,0.11,0.24,0.24,0.24c0,0,0,0,0,0h16.25c0.13,0,0.24-0.11,0.24-0.24c0,0,0,0,0,0
		L173.89,112.44z"/>
	<path id="패스_111" class="st0" d="M154.45,97.95c0-0.13-0.11-0.24-0.24-0.24c0,0,0,0,0,0h-6.06c-0.06,0-0.12,0.02-0.17,0.07
		c-0.08,0.1-0.08,0.24,0,0.34l0.93,1.19c0.16,0.18,0.24,0.42,0.22,0.66v8.39c0,2.65-1.38,3.89-3.49,3.89s-3.49-1.3-3.49-4.03V97.95
		c0-0.13-0.11-0.24-0.24-0.24h-6.06c-0.06,0-0.12,0.02-0.17,0.07c-0.08,0.1-0.08,0.24,0,0.34l0.93,1.19
		c0.16,0.18,0.24,0.42,0.22,0.66v8.36c0,5.92,3.38,8.65,8.76,8.65s8.86-2.68,8.86-8.78L154.45,97.95z"/>
	<path id="패스_112" class="st0" d="M216.15,97.71h-6.07c-0.06,0-0.13,0.02-0.17,0.07c-0.09,0.09-0.09,0.24,0,0.34
		c0.09,0.11,1.07,1.38,1.07,1.38c0.16,0.18,0.24,0.42,0.22,0.66v7.55l-7.54-9.68c-0.13-0.19-0.35-0.31-0.58-0.32h-5.53
		c-0.06,0-0.13,0.02-0.17,0.07c-0.09,0.09-0.09,0.24,0,0.34l0.92,1.19c0.16,0.18,0.24,0.42,0.22,0.66v16.42
		c0,0.13,0.11,0.24,0.24,0.24c0,0,0,0,0,0h4.71c0.13,0,0.24-0.11,0.24-0.24c0,0,0,0,0,0v-10.14l7.82,10.05
		c0.23,0.29,0.49,0.33,0.98,0.33h3.64c0.13,0,0.24-0.11,0.24-0.24c0,0,0,0,0,0V97.95C216.39,97.82,216.28,97.71,216.15,97.71
		L216.15,97.71z"/>
	<path id="패스_113" class="st0" d="M234.84,97.71h-15.83c-0.13,0-0.24,0.11-0.24,0.24c0,0.06,0.02,0.12,0.07,0.17l0.92,1.19
		c0.16,0.18,0.24,0.42,0.22,0.66v16.42c0,0.13,0.11,0.24,0.24,0.24c0,0,0,0,0,0h14.62c0.13,0,0.24-0.11,0.24-0.24c0,0,0,0,0,0v-3.95
		c0-0.13-0.11-0.24-0.24-0.24h-9.62v-3.05h8.63c0.13,0,0.24-0.11,0.24-0.24c0,0,0,0,0,0v-3.48c0-0.13-0.11-0.24-0.24-0.24l0,0h-8.63
		v-3.05h9.62c0.13,0,0.24-0.11,0.24-0.24c0,0,0,0,0,0v-3.96C235.08,97.82,234.97,97.71,234.84,97.71L234.84,97.71z"/>
</g>
</svg>
